<svg xmlns="http://www.w3.org/2000/svg" xmlns:xlink="http://www.w3.org/1999/xlink" width="120" zoomAndPan="magnify" viewBox="0 0 90 52.499999" height="70" preserveAspectRatio="xMidYMid meet" version="1.0"><defs><g/><clipPath id="f0da1a8e82"><path d="M 4.125 6.777344 L 30 6.777344 L 30 15 L 4.125 15 Z M 4.125 6.777344 " clip-rule="nonzero"/></clipPath><clipPath id="709294fab9"><path d="M 9 14 L 30.570312 14 L 30.570312 42.839844 L 9 42.839844 Z M 9 14 " clip-rule="nonzero"/></clipPath></defs><g clip-path="url(#f0da1a8e82)"><path fill="#00adef" d="M 29.613281 10.816406 C 29.585938 11.207031 29.292969 11.542969 28.894531 11.675781 L 20.546875 14.488281 C 20.429688 14.527344 20.3125 14.546875 20.1875 14.546875 C 20.070312 14.546875 19.949219 14.527344 19.832031 14.488281 L 12.066406 11.871094 C 11.820312 11.789062 11.699219 11.527344 11.816406 11.304688 C 11.914062 11.105469 12.167969 11.023438 12.390625 11.097656 L 20.136719 13.707031 C 20.171875 13.71875 20.207031 13.71875 20.242188 13.707031 L 28.621094 10.882812 C 28.703125 10.855469 28.722656 10.796875 28.722656 10.75 C 28.722656 10.714844 28.710938 10.648438 28.621094 10.617188 L 20.242188 7.640625 C 20.210938 7.628906 20.167969 7.628906 20.132812 7.640625 L 14.339844 9.699219 C 14.546875 9.765625 14.757812 9.84375 14.972656 9.921875 C 18.046875 11.074219 20.152344 10.105469 20.910156 9.640625 C 20.984375 9.597656 21.070312 9.574219 21.15625 9.574219 C 21.28125 9.574219 21.402344 9.621094 21.488281 9.714844 C 21.671875 9.902344 21.628906 10.199219 21.398438 10.335938 C 20.476562 10.898438 18.070312 11.976562 14.640625 10.695312 C 9.832031 8.894531 7.941406 10.4375 7.34375 11.207031 L 7.894531 11.515625 L 6.542969 13.539062 C 6.203125 14.050781 5.488281 14.222656 4.921875 13.925781 C 4.324219 13.613281 4.125 12.902344 4.484375 12.359375 L 5.8125 10.34375 L 6.585938 10.78125 C 7.234375 9.949219 9.011719 8.421875 12.9375 9.308594 L 19.816406 6.867188 C 20.054688 6.78125 20.320312 6.78125 20.5625 6.867188 L 28.941406 9.839844 C 29.375 9.992188 29.644531 10.382812 29.613281 10.816406 Z M 29.613281 10.816406 " fill-opacity="1" fill-rule="nonzero"/></g><g clip-path="url(#709294fab9)"><path fill="#00adef" d="M 24.207031 14.210938 L 20.546875 15.441406 C 20.429688 15.480469 20.308594 15.5 20.1875 15.5 C 20.070312 15.5 19.949219 15.480469 19.832031 15.441406 L 16.046875 14.164062 C 14.339844 19.652344 9.667969 24.082031 9.667969 24.082031 C 11.015625 25.550781 12.335938 27.429688 13.574219 29.523438 L 17.328125 37.046875 C 18.027344 38.714844 19.148438 41.273438 19.664062 42.839844 L 19.550781 34.859375 C 19.605469 33.675781 19.609375 27.71875 19.578125 25.101562 C 19.167969 24.910156 18.886719 24.515625 18.886719 24.0625 C 18.886719 23.425781 19.4375 22.90625 20.117188 22.894531 C 20.800781 22.90625 21.347656 23.421875 21.347656 24.0625 C 21.347656 24.515625 21.070312 24.910156 20.660156 25.101562 C 20.628906 27.71875 20.628906 33.675781 20.6875 34.859375 L 20.570312 42.839844 C 21.089844 41.273438 22.210938 38.714844 22.910156 37.046875 L 26.660156 29.523438 C 27.898438 27.429688 29.222656 25.550781 30.570312 24.082031 C 30.570312 24.082031 25.921875 19.675781 24.207031 14.210938 Z M 24.207031 14.210938 " fill-opacity="1" fill-rule="nonzero"/></g><g fill="#068ccd" fill-opacity="1"><g transform="translate(27.465264, 42.787788)"><g><path d="M 4.25 -3.078125 C 4.507812 -3.078125 4.710938 -3.125 4.859375 -3.21875 C 5.003906 -3.320312 5.078125 -3.484375 5.078125 -3.703125 C 5.078125 -3.898438 5.007812 -4.039062 4.875 -4.125 C 4.738281 -4.21875 4.523438 -4.265625 4.234375 -4.265625 L 2.671875 -4.265625 L 2.671875 -3.078125 Z M 4.515625 -5.421875 C 4.835938 -5.421875 5.125 -5.375 5.375 -5.28125 C 5.625 -5.1875 5.828125 -5.0625 5.984375 -4.90625 C 6.148438 -4.757812 6.273438 -4.578125 6.359375 -4.359375 C 6.453125 -4.148438 6.5 -3.929688 6.5 -3.703125 C 6.5 -3.453125 6.453125 -3.21875 6.359375 -3 C 6.265625 -2.789062 6.128906 -2.609375 5.953125 -2.453125 C 5.785156 -2.304688 5.582031 -2.191406 5.34375 -2.109375 C 5.101562 -2.023438 4.835938 -1.984375 4.546875 -1.984375 L 2.671875 -1.984375 L 2.671875 -0.3125 C 2.671875 -0.257812 2.6875 -0.21875 2.71875 -0.1875 C 2.75 -0.15625 2.828125 -0.132812 2.953125 -0.125 L 2.953125 0 L 0.828125 0 L 0.828125 -0.125 C 0.960938 -0.132812 1.046875 -0.15625 1.078125 -0.1875 C 1.109375 -0.21875 1.125 -0.257812 1.125 -0.3125 L 1.125 -5.109375 C 1.125 -5.160156 1.109375 -5.203125 1.078125 -5.234375 C 1.046875 -5.265625 0.960938 -5.285156 0.828125 -5.296875 L 0.828125 -5.421875 Z M 4.515625 -5.421875 "/></g></g></g><g fill="#068ccd" fill-opacity="1"><g transform="translate(36.102139, 42.787788)"><g><path d="M 4.40625 -3.140625 C 4.632812 -3.140625 4.820312 -3.179688 4.96875 -3.265625 C 5.125 -3.359375 5.203125 -3.503906 5.203125 -3.703125 C 5.203125 -3.898438 5.125 -4.039062 4.96875 -4.125 C 4.820312 -4.21875 4.632812 -4.265625 4.40625 -4.265625 L 2.671875 -4.265625 L 2.671875 -3.140625 Z M 4.625 -5.421875 C 5.332031 -5.421875 5.867188 -5.289062 6.234375 -5.03125 C 6.597656 -4.769531 6.78125 -4.332031 6.78125 -3.71875 C 6.78125 -2.863281 6.289062 -2.296875 5.3125 -2.015625 L 6.46875 -0.375 C 6.539062 -0.28125 6.597656 -0.21875 6.640625 -0.1875 C 6.691406 -0.15625 6.753906 -0.132812 6.828125 -0.125 L 6.828125 0 L 4.6875 0 L 4.6875 -0.125 C 4.78125 -0.132812 4.835938 -0.15625 4.859375 -0.1875 C 4.890625 -0.21875 4.90625 -0.25 4.90625 -0.28125 C 4.90625 -0.3125 4.894531 -0.34375 4.875 -0.375 C 4.851562 -0.414062 4.828125 -0.457031 4.796875 -0.5 C 4.609375 -0.769531 4.414062 -1.035156 4.21875 -1.296875 C 4.019531 -1.554688 3.84375 -1.804688 3.6875 -2.046875 L 2.671875 -2.046875 L 2.671875 -0.3125 C 2.671875 -0.257812 2.6875 -0.21875 2.71875 -0.1875 C 2.75 -0.15625 2.828125 -0.132812 2.953125 -0.125 L 2.953125 0 L 0.828125 0 L 0.828125 -0.125 C 0.960938 -0.132812 1.046875 -0.15625 1.078125 -0.1875 C 1.109375 -0.21875 1.125 -0.257812 1.125 -0.3125 L 1.125 -5.109375 C 1.125 -5.160156 1.109375 -5.203125 1.078125 -5.234375 C 1.046875 -5.265625 0.960938 -5.285156 0.828125 -5.296875 L 0.828125 -5.421875 Z M 4.625 -5.421875 "/></g></g></g><g fill="#068ccd" fill-opacity="1"><g transform="translate(45.306511, 42.787788)"><g><path d="M 2.65625 -2 L 4.5625 -2 L 3.5625 -4.453125 Z M 5.015625 -5.421875 L 5.015625 -5.296875 C 4.929688 -5.296875 4.878906 -5.28125 4.859375 -5.25 C 4.835938 -5.226562 4.828125 -5.207031 4.828125 -5.1875 C 4.828125 -5.164062 4.84375 -5.109375 4.875 -5.015625 C 4.90625 -4.921875 4.984375 -4.71875 5.109375 -4.40625 L 6.734375 -0.4375 C 6.785156 -0.320312 6.828125 -0.238281 6.859375 -0.1875 C 6.890625 -0.144531 6.941406 -0.125 7.015625 -0.125 L 7.015625 0 L 4.984375 0 L 4.984375 -0.125 C 5.066406 -0.132812 5.117188 -0.148438 5.140625 -0.171875 C 5.171875 -0.191406 5.1875 -0.21875 5.1875 -0.25 C 5.1875 -0.257812 5.148438 -0.363281 5.078125 -0.5625 L 4.84375 -1.171875 L 2.390625 -1.171875 L 2.125 -0.4375 C 2.082031 -0.320312 2.0625 -0.253906 2.0625 -0.234375 C 2.0625 -0.203125 2.070312 -0.175781 2.09375 -0.15625 C 2.125 -0.132812 2.175781 -0.125 2.25 -0.125 L 2.25 0 L 0.421875 0 L 0.421875 -0.125 C 0.472656 -0.132812 0.507812 -0.144531 0.53125 -0.15625 C 0.5625 -0.164062 0.585938 -0.1875 0.609375 -0.21875 C 0.640625 -0.25 0.664062 -0.285156 0.6875 -0.328125 C 0.707031 -0.378906 0.734375 -0.453125 0.765625 -0.546875 L 2.3125 -4.59375 C 2.363281 -4.738281 2.410156 -4.875 2.453125 -5 C 2.503906 -5.125 2.53125 -5.191406 2.53125 -5.203125 C 2.53125 -5.222656 2.515625 -5.238281 2.484375 -5.25 C 2.460938 -5.269531 2.410156 -5.285156 2.328125 -5.296875 L 2.328125 -5.421875 Z M 5.015625 -5.421875 "/></g></g></g><g fill="#068ccd" fill-opacity="1"><g transform="translate(54.510883, 42.787788)"><g><path d="M 3.328125 -5.421875 L 3.328125 -5.296875 C 3.203125 -5.296875 3.117188 -5.28125 3.078125 -5.25 C 3.046875 -5.226562 3.03125 -5.203125 3.03125 -5.171875 C 3.03125 -5.148438 3.066406 -5.097656 3.140625 -5.015625 C 3.210938 -4.921875 3.320312 -4.785156 3.46875 -4.609375 C 3.625 -4.441406 3.800781 -4.25 4 -4.03125 L 5.53125 -2.359375 L 5.53125 -5.109375 C 5.53125 -5.234375 5.460938 -5.296875 5.328125 -5.296875 L 5.328125 -5.421875 L 7.203125 -5.421875 L 7.203125 -5.296875 C 7.078125 -5.285156 7 -5.265625 6.96875 -5.234375 C 6.9375 -5.203125 6.921875 -5.160156 6.921875 -5.109375 L 6.921875 -0.3125 C 6.921875 -0.257812 6.9375 -0.21875 6.96875 -0.1875 C 7 -0.15625 7.078125 -0.132812 7.203125 -0.125 L 7.203125 0 L 5.25 0 L 5.25 -0.125 C 5.34375 -0.125 5.40625 -0.132812 5.4375 -0.15625 C 5.46875 -0.175781 5.484375 -0.203125 5.484375 -0.234375 C 5.484375 -0.265625 5.457031 -0.3125 5.40625 -0.375 C 5.363281 -0.4375 5.253906 -0.554688 5.078125 -0.734375 C 4.929688 -0.890625 4.78125 -1.046875 4.625 -1.203125 C 4.476562 -1.367188 4.335938 -1.523438 4.203125 -1.671875 C 4.078125 -1.816406 3.957031 -1.953125 3.84375 -2.078125 C 3.726562 -2.203125 3.628906 -2.304688 3.546875 -2.390625 L 2.5 -3.546875 L 2.5 -0.3125 C 2.5 -0.257812 2.515625 -0.21875 2.546875 -0.1875 C 2.578125 -0.15625 2.660156 -0.132812 2.796875 -0.125 L 2.796875 0 L 0.828125 0 L 0.828125 -0.125 C 0.960938 -0.132812 1.046875 -0.15625 1.078125 -0.1875 C 1.109375 -0.21875 1.125 -0.257812 1.125 -0.3125 L 1.125 -5.109375 C 1.125 -5.171875 1.101562 -5.210938 1.0625 -5.234375 C 1.03125 -5.265625 0.953125 -5.285156 0.828125 -5.296875 L 0.828125 -5.421875 Z M 3.328125 -5.421875 "/></g></g></g></svg>